<svg width="272" height="272" viewBox="0 0 272 272" fill="none" xmlns="http://www.w3.org/2000/svg">
<path fill-rule="evenodd" clip-rule="evenodd" d="M136.107 89.5078C123.149 89.5078 112.114 94.0638 103.007 103.17C93.9926 112.28 89.4856 123.312 89.4856 136.27C89.4856 149.137 93.9926 160.122 103.007 169.229C112.114 178.339 123.149 182.891 136.107 182.891C148.971 182.891 159.957 178.339 169.066 169.229C178.173 160.122 182.728 149.137 182.728 136.27C182.728 123.312 178.173 112.28 169.066 103.17C159.957 94.0638 148.971 89.5078 136.107 89.5078ZM136.107 54.7178C158.454 54.7178 177.564 62.6538 193.433 78.5218C209.301 94.3928 217.237 113.502 217.237 135.849C217.237 158.197 209.301 177.307 193.433 193.174C177.564 209.043 158.454 216.978 136.107 216.978C113.758 216.978 94.6486 209.043 78.7806 193.174C62.9106 177.307 54.9766 158.197 54.9766 135.849C54.9766 113.502 62.9106 94.3928 78.7806 78.5218C94.6486 62.6538 113.758 54.7178 136.107 54.7178Z" fill="#2D6B78"/>
<path fill-rule="evenodd" clip-rule="evenodd" d="M121.891 238.817C75.9257 232.502 39.4457 196.025 33.1307 150.068C32.0097 141.912 25.0187 135.849 16.7857 135.849C6.8577 135.849 -0.933303 144.56 0.398697 154.398C8.6307 215.196 56.7617 263.318 117.563 271.549C127.4 272.881 136.111 265.089 136.111 255.162C136.111 246.929 130.047 239.938 121.891 238.817Z" fill="#2D6B78"/>
<path fill-rule="evenodd" clip-rule="evenodd" d="M271.809 117.3C263.577 56.5017 215.448 8.38068 154.658 0.148682C144.82 -1.18332 136.109 6.60868 136.109 16.5357C136.109 24.7687 142.173 31.7597 150.33 32.8807C196.285 39.1947 232.763 75.6647 239.078 121.629C240.198 129.785 247.189 135.849 255.422 135.849C265.35 135.849 273.141 127.138 271.809 117.3Z" fill="#2D6B78"/>
</svg>
