<svg width="240" height="240" viewBox="0 0 240 240" fill="none" xmlns="http://www.w3.org/2000/svg">
<g clip-path="url(#clip0_2389_841)">
<mask id="mask0_2389_841" style="mask-type:luminance" maskUnits="userSpaceOnUse" x="0" y="0" width="240" height="240">
<path d="M240 0H0V240H240V0Z" fill="white"/>
</mask>
<g mask="url(#mask0_2389_841)">
<path d="M120 240C186.274 240 240 186.274 240 120C240 53.7258 186.274 0 120 0C53.7258 0 0 53.7258 0 120C0 186.274 53.7258 240 120 240Z" fill="#2D6B78"/>
<path fill-rule="evenodd" clip-rule="evenodd" d="M120.062 93.029C112.561 93.029 106.174 95.6645 100.902 100.932C95.6851 106.202 93.0763 112.583 93.0763 120.079C93.0763 127.522 95.6851 133.877 100.902 139.145C106.174 144.414 112.561 147.048 120.062 147.048C127.508 147.048 133.866 144.414 139.139 139.145C144.41 133.877 147.047 127.522 147.047 120.079C147.047 112.583 144.41 106.202 139.139 100.932C133.866 95.6645 127.508 93.029 120.062 93.029ZM120.062 72.9043C132.997 72.9043 144.058 77.495 153.243 86.6741C162.428 95.8548 167.021 106.909 167.021 119.836C167.021 132.763 162.428 143.817 153.243 152.996C144.058 162.175 132.997 166.766 120.062 166.766C107.125 166.766 96.0648 162.175 86.88 152.996C77.694 143.817 73.1016 132.763 73.1016 119.836C73.1016 106.909 77.694 95.8548 86.88 86.6741C96.0648 77.495 107.125 72.9043 120.062 72.9043Z" fill="white"/>
<mask id="mask1_2389_841" style="mask-type:luminance" maskUnits="userSpaceOnUse" x="41" y="119" width="80" height="80">
<path d="M41.4258 119.835H120.065V198.418H41.4258V119.835Z" fill="white"/>
</mask>
<g mask="url(#mask1_2389_841)">
<path fill-rule="evenodd" clip-rule="evenodd" d="M111.834 179.398C85.2288 175.745 64.1131 154.645 60.4579 128.06C59.8092 123.343 55.7625 119.835 50.9971 119.835C45.2505 119.835 40.7409 124.874 41.5118 130.565C46.2768 165.735 74.1362 193.571 109.329 198.333C115.023 199.103 120.065 194.596 120.065 188.853C120.065 184.091 116.555 180.047 111.834 179.398Z" fill="white"/>
</g>
<mask id="mask2_2389_841" style="mask-type:luminance" maskUnits="userSpaceOnUse" x="120" y="41" width="79" height="79">
<path d="M120.062 41.252H198.695V119.835H120.062V41.252Z" fill="white"/>
</mask>
<g mask="url(#mask2_2389_841)">
<path fill-rule="evenodd" clip-rule="evenodd" d="M198.609 109.105C193.844 73.936 165.986 46.0998 130.799 41.338C125.105 40.5673 120.062 45.0748 120.062 50.8173C120.062 55.5796 123.573 59.6238 128.294 60.2721C154.894 63.9246 176.008 85.0211 179.663 111.61C180.312 116.327 184.358 119.835 189.124 119.835C194.87 119.835 199.38 114.796 198.609 109.105Z" fill="white"/>
</g>
</g>
</g>
<defs>
<clipPath id="clip0_2389_841">
<rect width="240" height="240" fill="white"/>
</clipPath>
</defs>
</svg>
