<svg width="1000" height="207" viewBox="0 0 1000 207" fill="none" xmlns="http://www.w3.org/2000/svg">
<path fill-rule="evenodd" clip-rule="evenodd" d="M246.055 22.9549C246.055 10.4605 259.003 0 271.5 0C282.253 0 290.221 5.8116 296.322 13.657L382.62 126.972V22.0837C382.62 9.5894 392.21 0 404.703 0C417.198 0 426.788 9.5894 426.788 22.0837V183.922C426.788 196.414 416.908 206.294 404.414 206.294C393.663 206.294 385.817 201.065 379.717 193.218L290.221 75.8354V184.793C290.221 197.287 280.633 206.875 268.139 206.875C255.643 206.875 246.055 197.287 246.055 184.793V22.9549Z" fill="#2D6B78"/>
<path fill-rule="evenodd" clip-rule="evenodd" d="M477.629 22.3735C477.629 9.88094 487.509 0 500.003 0C512.498 0 522.376 9.88094 522.376 22.3735V184.503C522.376 196.996 512.498 206.875 500.003 206.875C487.509 206.875 477.629 196.996 477.629 184.503V22.3735Z" fill="#2D6B78"/>
<path fill-rule="evenodd" clip-rule="evenodd" d="M753.957 22.9549C753.957 10.4605 741.997 0 729.5 0C718.747 0 709.791 5.8116 703.689 13.657L617.391 126.972V22.0837C617.391 9.5894 607.802 0 595.308 0C582.813 0 573.224 9.5894 573.224 22.0837V183.922C573.224 196.414 584.556 206.294 597.051 206.294C607.802 206.294 614.195 201.065 620.295 193.218L709.791 75.8354V184.793C709.791 197.287 719.379 206.875 731.872 206.875C744.369 206.875 753.957 197.287 753.957 184.793V22.9549Z" fill="#2D6B78"/>
<path fill-rule="evenodd" clip-rule="evenodd" d="M896.87 161.623C864.567 161.623 838.375 135.432 838.375 103.131C838.375 70.8292 864.567 44.638 896.87 44.638C929.172 44.638 955.365 70.8292 955.365 103.131C955.365 135.432 929.172 161.623 896.87 161.623ZM896.87 0.00195312C839.914 0.00195312 793.754 46.1772 793.754 103.131C793.754 160.084 839.914 206.242 896.87 206.242C953.826 206.242 1000 160.084 1000 103.131C1000 46.1772 953.826 0.00195312 896.87 0.00195312Z" fill="#2D6B78"/>
<path fill-rule="evenodd" clip-rule="evenodd" d="M103.116 161.623C70.813 161.623 44.6206 135.432 44.6206 103.131C44.6206 70.8292 70.813 44.638 103.116 44.638C135.419 44.638 161.611 70.8292 161.611 103.131C161.611 135.432 135.419 161.623 103.116 161.623ZM103.116 0.00195312C46.1599 0.00195312 0 46.1772 0 103.131C0 160.084 46.1599 206.242 103.116 206.242C160.072 206.242 206.249 160.084 206.249 103.131C206.249 46.1772 160.072 0.00195312 103.116 0.00195312Z" fill="#2D6B78"/>
</svg>
