<?xml version="1.0" encoding="UTF-8"?>
<svg width="272px" height="273px" viewBox="0 0 272 273" version="1.1" xmlns="http://www.w3.org/2000/svg" xmlns:xlink="http://www.w3.org/1999/xlink">
    <title>White_ONI_Icon</title>
    <defs>
        <polygon id="path-1" points="-1.13686838e-13 2.84217094e-14 135.860697 2.84217094e-14 135.860697 135.8484 -1.13686838e-13 135.8484"></polygon>
        <polygon id="path-3" points="0 0 135.8483 0 135.8483 135.848682 0 135.848682"></polygon>
    </defs>
    <g id="Page-1" stroke="none" stroke-width="1" fill="none" fill-rule="evenodd">
        <g id="White_ONI_Icon" transform="translate(0.249003, 0.366600)">
            <path d="M135.857797,89.5077816 C122.899797,89.5077816 111.864797,94.0637816 102.757797,103.169782 C93.7437973,112.279782 89.2367973,123.311782 89.2367973,136.269782 C89.2367973,149.136782 93.7437973,160.121782 102.757797,169.228782 C111.864797,178.338782 122.899797,182.890782 135.857797,182.890782 C148.721797,182.890782 159.707797,178.338782 168.816797,169.228782 C177.923797,160.121782 182.478797,149.136782 182.478797,136.269782 C182.478797,123.311782 177.923797,112.279782 168.816797,103.169782 C159.707797,94.0637816 148.721797,89.5077816 135.857797,89.5077816 M135.857797,54.7177816 C158.204797,54.7177816 177.314797,62.6537816 193.183797,78.5217816 C209.051797,94.3927816 216.987797,113.501782 216.987797,135.848782 C216.987797,158.196782 209.051797,177.306782 193.183797,193.173782 C177.314797,209.042782 158.204797,216.977782 135.857797,216.977782 C113.508797,216.977782 94.3997973,209.042782 78.5317973,193.173782 C62.6617973,177.306782 54.7277973,158.196782 54.7277973,135.848782 C54.7277973,113.501782 62.6617973,94.3927816 78.5317973,78.5217816 C94.3997973,62.6537816 113.508797,54.7177816 135.857797,54.7177816" id="Fill-1" fill="#FFFFFF"></path>
            <g id="Group-5" transform="translate(0.000000, 135.848782)">
                <mask id="mask-2" fill="white">
                    <use xlink:href="#path-1"></use>
                </mask>
                <g id="Clip-4"></g>
                <path d="M121.640697,102.968 C75.6756973,96.653 39.1956973,60.176 32.8806973,14.219 C31.7596973,6.063 24.7686973,2.84217094e-14 16.5356973,2.84217094e-14 L16.5356973,2.84217094e-14 C6.6076973,2.84217094e-14 -1.1833027,8.711 0.1486973,18.549 C8.3806973,79.347 56.5116973,127.469 117.312697,135.7 C127.149697,137.032 135.860697,129.24 135.860697,119.313 L135.860697,119.313 C135.860697,111.08 129.796697,104.089 121.640697,102.968" id="Fill-3" fill="#FFFFFF" mask="url(#mask-2)"></path>
            </g>
            <g id="Group-8" transform="translate(135.860597, -0.000000)">
                <mask id="mask-4" fill="white">
                    <use xlink:href="#path-3"></use>
                </mask>
                <g id="Clip-7"></g>
                <path d="M135.7,117.299682 C127.468,56.5016816 79.339,8.38068163 18.549,0.148681626 C8.711,-1.18331837 0,6.60868163 0,16.5356816 L0,16.5356816 C0,24.7686816 6.064,31.7596816 14.221,32.8806816 C60.176,39.1946816 96.654,75.6646816 102.969,121.628682 C104.089,129.784682 111.08,135.848682 119.313,135.848682 C129.241,135.848682 137.032,127.137682 135.7,117.299682" id="Fill-6" fill="#FFFFFF" mask="url(#mask-4)"></path>
            </g>
        </g>
    </g>
</svg>